<?xml version="1.0" standalone="no"?><svg xmlns="http://www.w3.org/2000/svg" viewBox="0 0 1440 320"><path fill="#0099ff" fill-opacity="1" d="M0,96L18.5,85.3C36.9,75,74,53,111,74.7C147.7,96,185,160,222,197.3C258.5,235,295,245,332,229.3C369.2,213,406,171,443,165.3C480,160,517,192,554,202.7C590.8,213,628,203,665,181.3C701.5,160,738,128,775,133.3C812.3,139,849,181,886,213.3C923.1,245,960,267,997,250.7C1033.8,235,1071,181,1108,165.3C1144.6,149,1182,171,1218,186.7C1255.4,203,1292,213,1329,197.3C1366.2,181,1403,139,1422,117.3L1440,96L1440,320L1421.5,320C1403.1,320,1366,320,1329,320C1292.3,320,1255,320,1218,320C1181.5,320,1145,320,1108,320C1070.8,320,1034,320,997,320C960,320,923,320,886,320C849.2,320,812,320,775,320C738.5,320,702,320,665,320C627.7,320,591,320,554,320C516.9,320,480,320,443,320C406.2,320,369,320,332,320C295.4,320,258,320,222,320C184.6,320,148,320,111,320C73.8,320,37,320,18,320L0,320Z"></path></svg>